<svg height="100" width="100" xmlns="http://www.w3.org/2000/svg"><path d="M53.645 41.458h10.477a1 1 0 0 0 0-2H53.645a1 1 0 0 0 0 2zm0 4.848h10.477a1 1 0 0 0 0-2H53.645a1 1 0 0 0 0 2zm0 4.847h10.477a1 1 0 0 0 0-2H53.645a1 1 0 0 0 0 2zm0 4.848h10.477a1 1 0 1 0 0-2H53.645a1 1 0 1 0 0 2zm-17.766 0h12.344a1 1 0 0 0 1-1V40.458a1 1 0 0 0-1-1H35.879a1 1 0 0 0-1 1v14.543a1 1 0 0 0 1 1zm1-14.543h10.344v12.543H36.879V41.458z"/><path d="M68.025 23.642h-36.05a1 1 0 0 0-1 1v50.717a1 1 0 0 0 1 1h36.051a1 1 0 0 0 1-1V24.642a1 1 0 0 0-1.001-1zm-1 50.716h-34.05V60.941h34.051v13.417zm0-15.417h-34.05V34.545h34.051v24.396zm0-26.396h-34.05v-6.903h34.051v6.903z"/><path d="M54.162 30.295h3.078a1 1 0 0 0 0-2h-3.078a1 1 0 0 0 0 2zm-6.822 0h3.078a1 1 0 0 0 0-2H47.34a1 1 0 0 0 0 2zm13.642 0h3.08a1 1 0 0 0 0-2h-3.08a1 1 0 0 0 0 2zm-25.046 1.333h5.5a1 1 0 0 0 1-1v-2.833a1 1 0 0 0-1-1h-5.5a1 1 0 0 0-1 1v2.833a1 1 0 0 0 1 1zm1-2.833h3.5v.833h-3.5v-.833zm-1.049 36.168H48.35a1 1 0 1 0 0-2H35.887a1 1 0 1 0 0 2zm0 3.625H48.35a1 1 0 1 0 0-2H35.887a1 1 0 1 0 0 2zm-.008 3.625H48.35a1 1 0 1 0 0-2H35.879a1 1 0 1 0 0 2zm25.162-7.25h3.08a1 1 0 1 0 0-2h-3.08a1 1 0 1 0 0 2zm0 3.625h3.08a1 1 0 1 0 0-2h-3.08a1 1 0 1 0 0 2zm0 3.625h3.08a1 1 0 1 0 0-2h-3.08a1 1 0 1 0 0 2z"/></svg>