<svg xmlns="http://www.w3.org/2000/svg" height="53" width="38"><rect width="100%" height="100%" fill="none"/><g class="currentLayer"><path d="M22.67 17.816h10.477a1 1 0 0 0 0-2H22.67a1 1 0 0 0 0 2zm0 4.848h10.477a1 1 0 0 0 0-2H22.67a1 1 0 0 0 0 2zm0 4.847h10.477a1 1 0 0 0 0-2H22.67a1 1 0 0 0 0 2zm0 4.848h10.477a1 1 0 1 0 0-2H22.67a1 1 0 1 0 0 2zm-17.766 0h12.344a1 1 0 0 0 1-1V16.816a1 1 0 0 0-1-1H4.904a1 1 0 0 0-1 1v14.543a1 1 0 0 0 1 1zm1-14.543h10.344v12.543H5.904V17.816z"/><path d="M37.05 0H1a1 1 0 0 0-1 1v50.717a1 1 0 0 0 1 1h36.051a1 1 0 0 0 1-1V1a1 1 0 0 0-1.001-1zm-1 50.716H2V37.299h34.051v13.417zm0-15.417H2V10.903h34.051v24.396zm0-26.396H2V2h34.051v6.903z"/><path d="M23.187 6.653h3.078a1 1 0 0 0 0-2h-3.078a1 1 0 0 0 0 2zm-6.822 0h3.078a1 1 0 0 0 0-2h-3.078a1 1 0 0 0 0 2zm13.642 0h3.08a1 1 0 0 0 0-2h-3.08a1 1 0 0 0 0 2zM4.961 7.986h5.5a1 1 0 0 0 1-1V4.153a1 1 0 0 0-1-1h-5.5a1 1 0 0 0-1 1v2.833a1 1 0 0 0 1 1zm1-2.833h3.5v.833h-3.5v-.833zM4.912 41.321h12.463a1 1 0 1 0 0-2H4.912a1 1 0 1 0 0 2zm0 3.625h12.463a1 1 0 1 0 0-2H4.912a1 1 0 1 0 0 2zm-.008 3.625h12.471a1 1 0 1 0 0-2H4.904a1 1 0 1 0 0 2zm25.162-7.25h3.08a1 1 0 1 0 0-2h-3.08a1 1 0 1 0 0 2zm0 3.625h3.08a1 1 0 1 0 0-2h-3.08a1 1 0 1 0 0 2zm0 3.625h3.08a1 1 0 1 0 0-2h-3.08a1 1 0 1 0 0 2z"/></g></svg>