<svg xmlns="http://www.w3.org/2000/svg" height="69" width="87"><rect width="100%" height="100%" fill="none"/><g class="currentLayer"><path d="M55.421 21.976H43.432a1 1 0 1 0 0 2h11.989a1 1 0 1 0 0-2zm0 5.549H43.432a1 1 0 1 0 0 2h11.989a1 1 0 1 0 0-2zm0 5.549H43.432a1 1 0 1 0 0 2h11.989a1 1 0 1 0 0-2zm0 5.548H43.432a1 1 0 1 0 0 2h11.989a1 1 0 1 0 0-2zM37.226 21.976H23.098a1 1 0 0 0-1 1v16.646a1 1 0 0 0 1 1h14.128a1 1 0 0 0 1-1V22.976a1 1 0 0 0-1-1zm-1 16.646H24.098V23.976h12.128v14.646zM56.04 11.199h3.525a1 1 0 1 0 0-2H56.04a1 1 0 1 0 0 2zm-7.808 0h3.525a1 1 0 1 0 0-2h-3.525a1 1 0 1 0 0 2zm15.617 0h3.525a1 1 0 1 0 0-2h-3.525a1 1 0 1 0 0 2zm-52.705 1.527h6.296a1 1 0 0 0 1-1V8.482a1 1 0 0 0-1-1h-6.296a1 1 0 0 0-1 1v3.244a1 1 0 0 0 1 1zm1-3.244h4.296v1.244h-4.296V9.482z"/><path d="M83.924 20.741a5.218 5.218 0 0 0-1.906-.361h-3.497V3.211C78.521 1.44 77.128 0 75.416 0H3.105C1.393 0 0 1.44 0 3.211v44.193c0 1.77 1.393 3.21 3.105 3.21h27.14c-.215 2.949-.545 6.062-.768 6.584-.312.57-.772.848-1.784 1.421l-.18.102c-.96.537-1.424 1.078-1.461 1.704-.025.435.172.839.543 1.106.512.371 1.309.445 2.429.445h20.274l.576.006c.749 0 1.517-.056 2.062-.459.365-.271.558-.676.53-1.108-.041-.622-.504-1.16-1.451-1.69l-.198-.112c-1.006-.571-1.463-.848-1.764-1.393-.231-.54-.562-3.655-.777-6.605h14.52v12.722a5.203 5.203 0 0 0 3.316 4.864 5.19 5.19 0 0 0 1.908.364h13.997a5.233 5.233 0 0 0 5.229-5.226v-37.73a5.198 5.198 0 0 0-3.322-4.868zM49.181 59.976h-19.84c.783-.47 1.418-.956 1.889-1.816.475-.863.826-4.762 1.021-7.546H46.27c.195 2.783.545 6.682 1.019 7.545.473.862 1.108 1.347 1.892 1.817zm13.614-11.362H3.105c-.609 0-1.105-.543-1.105-1.21V3.211C2 2.543 2.496 2 3.105 2h72.311c.609 0 1.105.543 1.105 1.211V20.38h-1.126l-.013-5.239c.002-.026.016-.05.016-.077 0-.028-.014-.052-.016-.079l-.027-10.79a1 1 0 0 0-1-.997H4.166a1 1 0 0 0-1 1v10.648c-.016.072-.043.14-.043.217s.027.146.044.218v30.402a1 1 0 0 0 1 1h58.629v1.931zm10.584-34.551H5.166V5.197h68.19l.023 8.866zM62.795 25.607v19.076H5.166v-28.62h68.217l.011 4.316h-5.373a5.234 5.234 0 0 0-5.226 5.228zM75.02 65.236a.659.659 0 1 1 .001-1.317.659.659 0 0 1-.001 1.317zm7.164-29.098v24.305H67.857V36.138h14.327zm-14.327-2v-5.64h14.327v5.64H67.857zm17.39 29.201a3.232 3.232 0 0 1-3.229 3.226H76.77a2.638 2.638 0 0 0 .911-1.986c0-.877-.432-1.65-1.09-2.135h6.594a1 1 0 0 0 1-1v-26.3l.001-.005-.001-.005v-7.635a1 1 0 0 0-1-1H66.857a1 1 0 0 0-1 1v33.944a1 1 0 0 0 1 1h6.594a2.65 2.65 0 0 0-1.089 2.135c0 .794.356 1.499.91 1.986h-5.251c-.4 0-.796-.076-1.176-.225a3.215 3.215 0 0 1-2.049-3.004V25.607a3.231 3.231 0 0 1 3.227-3.228h13.996c.401 0 .797.075 1.177.224a3.21 3.21 0 0 1 2.052 3.004v37.732z"/><path d="M79.304 52.919h-8.566a1 1 0 1 0 0 2h8.566a1 1 0 1 0 0-2zm0 3.965h-8.566a1 1 0 1 0 0 2h8.566a1 1 0 1 0 0-2zm-9.331-4.901h10.096a1 1 0 0 0 1-1V39.089a1 1 0 0 0-1-1H69.973a1 1 0 0 0-1 1v11.895a1 1 0 0 0 1 .999zm1-11.894h8.096v9.895h-8.096v-9.895zm9.096-9.771h-2.52a1 1 0 1 0 0 2h2.52a1 1 0 1 0 0-2zm-5.598-1.158h-4.498a1 1 0 0 0-1 1v2.317a1 1 0 0 0 1 1h4.498a1 1 0 0 0 1-1V30.16a1 1 0 0 0-1-1zm-1 2.317h-2.498v-.317h2.498v.317z"/></g></svg>