<svg id="Слой_3" data-name="Слой 3" xmlns="http://www.w3.org/2000/svg" xmlns:xlink="http://www.w3.org/1999/xlink" viewBox="0 0 245.59 197.53"><defs><clipPath id="clip-path" transform="translate(-5.97 67.76)"><rect x="8" y="8" width="235" height="53" style="fill:none;opacity:0"/></clipPath></defs><title>hardbop</title><g style="clip-path:url(#clip-path)"><g id="Слой_1" data-name="Слой 1"><path d="M9,8.92h7.62V25.45h15V8.92h7.62V50.09H31.64V32.85h-15V50.09H9Z" transform="translate(-5.97 67.76)"/><path d="M76.76,50.09H70V45.92h-.11a12.53,12.53,0,0,1-10.29,5.17c-7.85,0-15.08-6.17-15.08-16.13,0-9.68,6.79-16.69,15.3-16.69a11.32,11.32,0,0,1,10.07,5.34H70V19.27h6.79ZM51.89,35A8.75,8.75,0,0,0,61,44.08c5.28,0,8.84-3.83,8.84-9.45,0-5.34-3.5-9.35-8.84-9.35S51.89,29.4,51.89,35Z" transform="translate(-5.97 67.76)"/><path d="M82.76,19.27h6.79v2.78h.11a7.17,7.17,0,0,1,7.12-3.78v7.18c-6.73-.06-6.62,6.34-6.62,8V50.09h-7.4Z" transform="translate(-5.97 67.76)"/><path d="M131.28,50.09h-6.79V45.92h-.11a12,12,0,0,1-10.13,5.17C106,51.09,99,44.2,99,34.79c0-9.68,7-16.52,15.46-16.52a11.51,11.51,0,0,1,9.3,4.17h.11V8.92h7.4ZM106.41,34.68c0,5.34,3.61,9.4,8.9,9.4s9-3.95,9-9.4-3.84-9.4-9-9.4C110.3,25.28,106.41,29.06,106.41,34.68Z" transform="translate(-5.97 67.76)"/><path d="M144.68,8.92V22.5h.11a12.08,12.08,0,0,1,9.41-4.23c10.73,0,15.35,8.57,15.35,16.41,0,7.57-4.73,16.41-15.13,16.41a11.89,11.89,0,0,1-10.24-5.17h-.11v4.17h-6.79V8.92Zm-.44,25.37c0,5.45,3.78,9.79,9.18,9.79s8.73-4.06,8.73-9.34-3.39-9.46-8.73-9.46A8.94,8.94,0,0,0,144.24,34.29Z" transform="translate(-5.97 67.76)"/><path d="M206.27,34.74a16.36,16.36,0,0,1-32.72,0,16.36,16.36,0,1,1,32.72,0Zm-25.32,0c0,5,3.51,9.34,9,9.34s9-4.34,9-9.34-3.45-9.46-9-9.46S181,29.73,181,34.74Z" transform="translate(-5.97 67.76)"/><path d="M210.72,19.27h6.78v4h.12c2.61-4.29,7.51-5,9.9-5,8.4,0,15.46,6.45,15.46,16.41,0,8.46-5.67,16.41-15.46,16.41a11.46,11.46,0,0,1-9.29-4.34h-.11V60.38h-7.4Zm6.95,15.41c0,5.9,3.78,9.4,8.79,9.4,5.29,0,9.13-4,9.13-9.45,0-4.12-2.62-9.35-8.85-9.35C221.34,25.28,217.67,29.29,217.67,34.68Z" transform="translate(-5.97 67.76)"/></g><g id="Слой_2" data-name="Слой 2"><rect x="-1.74" y="17" width="264" height="3" transform="translate(16.63 10.64) rotate(27)" style="fill:#fff"/><rect x="1.26" y="-8" width="264" height="3" transform="translate(5.6 6.55) rotate(27)" style="fill:#fff"/><rect x="-4.74" y="42" width="264" height="3" transform="translate(27.65 14.73) rotate(27)" style="fill:#fff"/><rect x="-7.74" y="67" width="264" height="3" transform="translate(38.67 18.81) rotate(27)" style="fill:#fff"/></g></g></svg>