<svg xmlns="http://www.w3.org/2000/svg" xmlns:xlink="http://www.w3.org/1999/xlink" enable-background="new 0 0 100 100" height="53" version="1.1" width="38" xml:space="preserve"><rect id="backgroundrect" width="100%" height="100%" x="0" y="0" fill="none" stroke="none"/><g class="currentLayer" style=""><title>Layer 1</title><path d="M22.669999618530277,17.81599980163574 h10.477 c0.552,0 1,-0.44800000000000006 1,-1 s-0.44800000000000006,-1 -1,-1 H22.669999618530277 c-0.552,0 -1,0.44800000000000006 -1,1 S22.116999618530272,17.81599980163574 22.669999618530277,17.81599980163574 z" id="svg_1" class=""/><path d="M22.669999618530277,22.66399980163574 h10.477 c0.552,0 1,-0.44800000000000006 1,-1 s-0.44800000000000006,-1 -1,-1 H22.669999618530277 c-0.552,0 -1,0.44800000000000006 -1,1 S22.116999618530272,22.66399980163574 22.669999618530277,22.66399980163574 z" id="svg_2" class=""/><path d="M22.669999618530277,27.51099980163574 h10.477 c0.552,0 1,-0.44800000000000006 1,-1 s-0.44800000000000006,-1 -1,-1 H22.669999618530277 c-0.552,0 -1,0.44800000000000006 -1,1 S22.116999618530272,27.51099980163574 22.669999618530277,27.51099980163574 z" id="svg_3" class=""/><path d="M22.669999618530277,32.35899980163574 h10.477 c0.552,0 1,-0.44700000000000006 1,-1 s-0.44800000000000006,-1 -1,-1 H22.669999618530277 c-0.552,0 -1,0.44700000000000006 -1,1 S22.116999618530272,32.35899980163574 22.669999618530277,32.35899980163574 z" id="svg_4" class=""/><path d="M4.903999618530271,32.35899980163574 h12.344 c0.552,0 1,-0.44700000000000006 1,-1 V16.81599980163574 c0,-0.552 -0.44800000000000006,-1 -1,-1 H4.903999618530271 c-0.552,0 -1,0.44800000000000006 -1,1 v14.543 C3.903999618530271,31.911999801635744 4.351999618530272,32.35899980163574 4.903999618530271,32.35899980163574 zM5.903999618530271,17.81599980163574 h10.344 v12.543 H5.903999618530271 V17.81599980163574 z" id="svg_5" class=""/><path d="M37.04999961853028,-1.9836425835251248e-7 H0.9999996185302749 c-0.552,0 -1,0.44800000000000006 -1,1 v50.717 c0,0.553 0.44800000000000006,1 1,1 h36.051 c0.552,0 1,-0.44700000000000006 1,-1 V0.9999998016357416 C38.04999961853028,0.4469998016357408 37.602999618530276,-1.9836425835251248e-7 37.04999961853028,-1.9836425835251248e-7 zM36.04999961853028,50.715999801635746 H1.9999996185302749 V37.298999801635745 h34.051 V50.715999801635746 zM36.04999961853028,35.298999801635745 H1.9999996185302749 V10.902999801635744 h34.051 V35.298999801635745 zM36.04999961853028,8.902999801635744 H1.9999996185302749 v-6.9030000000000005 h34.051 V8.902999801635744 z" id="svg_6" class=""/><path d="M23.186999618530272,6.652999801635744 h3.078 c0.552,0 1,-0.44800000000000006 1,-1 s-0.44800000000000006,-1 -1,-1 h-3.078 c-0.552,0 -1,0.44800000000000006 -1,1 S22.634999618530273,6.652999801635744 23.186999618530272,6.652999801635744 z" id="svg_7" class=""/><path d="M16.364999618530277,6.652999801635744 h3.078 c0.552,0 1,-0.44800000000000006 1,-1 s-0.44800000000000006,-1 -1,-1 H16.364999618530277 c-0.552,0 -1,0.44800000000000006 -1,1 S15.81299961853027,6.652999801635744 16.364999618530277,6.652999801635744 z" id="svg_8" class=""/><path d="M30.006999618530273,6.652999801635744 h3.08 c0.552,0 1,-0.44800000000000006 1,-1 s-0.44800000000000006,-1 -1,-1 h-3.08 c-0.552,0 -1,0.44800000000000006 -1,1 S29.454999618530273,6.652999801635744 30.006999618530273,6.652999801635744 z" id="svg_9" class=""/><path d="M4.960999618530273,7.985999801635742 h5.5 c0.552,0 1,-0.44800000000000006 1,-1 v-2.833 c0,-0.552 -0.44800000000000006,-1 -1,-1 h-5.5 c-0.552,0 -1,0.44800000000000006 -1,1 v2.833 C3.9609996185302734,7.538999801635743 4.407999618530276,7.985999801635742 4.960999618530273,7.985999801635742 zM5.960999618530273,5.152999801635744 h3.5 v0.8330000000000001 h-3.5 V5.152999801635744 z" id="svg_10" class=""/><path d="M4.911999618530274,41.320999801635736 H17.374999618530275 c0.552,0 1,-0.44700000000000006 1,-1 s-0.44800000000000006,-1 -1,-1 H4.911999618530274 c-0.552,0 -1,0.44700000000000006 -1,1 S4.358999618530277,41.320999801635736 4.911999618530274,41.320999801635736 z" id="svg_11" class=""/><path d="M4.911999618530274,44.945999801635736 H17.374999618530275 c0.552,0 1,-0.44700000000000006 1,-1 s-0.44800000000000006,-1 -1,-1 H4.911999618530274 c-0.552,0 -1,0.44700000000000006 -1,1 S4.358999618530277,44.945999801635736 4.911999618530274,44.945999801635736 z" id="svg_12" class=""/><path d="M4.903999618530271,48.570999801635736 H17.374999618530275 c0.552,0 1,-0.44700000000000006 1,-1 s-0.44800000000000006,-1 -1,-1 H4.903999618530271 c-0.552,0 -1,0.44700000000000006 -1,1 S4.351999618530272,48.570999801635736 4.903999618530271,48.570999801635736 z" id="svg_13" class=""/><path d="M30.06599961853027,41.320999801635736 h3.08 c0.552,0 1,-0.44700000000000006 1,-1 s-0.44800000000000006,-1 -1,-1 h-3.08 c-0.552,0 -1,0.44700000000000006 -1,1 S29.51399961853027,41.320999801635736 30.06599961853027,41.320999801635736 z" id="svg_14" class=""/><path d="M30.06599961853027,44.945999801635736 h3.08 c0.552,0 1,-0.44700000000000006 1,-1 s-0.44800000000000006,-1 -1,-1 h-3.08 c-0.552,0 -1,0.44700000000000006 -1,1 S29.51399961853027,44.945999801635736 30.06599961853027,44.945999801635736 z" id="svg_15" class=""/><path d="M30.06599961853027,48.570999801635736 h3.08 c0.552,0 1,-0.44700000000000006 1,-1 s-0.44800000000000006,-1 -1,-1 h-3.08 c-0.552,0 -1,0.44700000000000006 -1,1 S29.51399961853027,48.570999801635736 30.06599961853027,48.570999801635736 z" id="svg_16" class=""/></g></svg>