<svg xmlns="http://www.w3.org/2000/svg" xmlns:xlink="http://www.w3.org/1999/xlink" enable-background="new 0 0 100 100" height="69" version="1.1" width="87" xml:space="preserve"><rect id="backgroundrect" width="100%" height="100%" x="0" y="0" fill="none" stroke="none"/><g class="currentLayer" style=""><title>Layer 1</title><path d="M55.42099966812134,21.975999588012698 H43.431999668121335 c-0.552,0 -1,0.44700000000000006 -1,1 s0.44800000000000006,1 1,1 h11.989 c0.552,0 1,-0.44700000000000006 1,-1 S55.97399966812134,21.975999588012698 55.42099966812134,21.975999588012698 z" id="svg_1" class=""/><path d="M55.42099966812134,27.524999588012697 H43.431999668121335 c-0.552,0 -1,0.44700000000000006 -1,1 s0.44800000000000006,1 1,1 h11.989 c0.552,0 1,-0.44700000000000006 1,-1 S55.97399966812134,27.524999588012697 55.42099966812134,27.524999588012697 z" id="svg_2" class=""/><path d="M55.42099966812134,33.0739995880127 H43.431999668121335 c-0.552,0 -1,0.44700000000000006 -1,1 s0.44800000000000006,1 1,1 h11.989 c0.552,0 1,-0.44700000000000006 1,-1 S55.97399966812134,33.0739995880127 55.42099966812134,33.0739995880127 z" id="svg_3" class=""/><path d="M55.42099966812134,38.6219995880127 H43.431999668121335 c-0.552,0 -1,0.44700000000000006 -1,1 s0.44800000000000006,1 1,1 h11.989 c0.552,0 1,-0.44700000000000006 1,-1 S55.97399966812134,38.6219995880127 55.42099966812134,38.6219995880127 z" id="svg_4" class=""/><path d="M37.22599966812134,21.975999588012698 H23.09799966812134 c-0.552,0 -1,0.44700000000000006 -1,1 V39.6219995880127 c0,0.553 0.44800000000000006,1 1,1 h14.128 c0.552,0 1,-0.44700000000000006 1,-1 V22.975999588012698 C38.22599966812134,22.4239995880127 37.77799966812134,21.975999588012698 37.22599966812134,21.975999588012698 zM36.22599966812134,38.6219995880127 H24.09799966812134 V23.975999588012698 h12.128 V38.6219995880127 z" id="svg_5" class=""/><path d="M56.03999966812134,11.198999588012697 h3.525 c0.552,0 1,-0.44700000000000006 1,-1 s-0.44800000000000006,-1 -1,-1 h-3.525 c-0.552,0 -1,0.44700000000000006 -1,1 S55.48799966812134,11.198999588012697 56.03999966812134,11.198999588012697 z" id="svg_6" class=""/><path d="M48.23199966812134,11.198999588012697 h3.525 c0.552,0 1,-0.44700000000000006 1,-1 s-0.44800000000000006,-1 -1,-1 h-3.525 c-0.552,0 -1,0.44700000000000006 -1,1 S47.67999966812134,11.198999588012697 48.23199966812134,11.198999588012697 z" id="svg_7" class=""/><path d="M63.84899966812134,11.198999588012697 h3.525 c0.552,0 1,-0.44700000000000006 1,-1 s-0.44800000000000006,-1 -1,-1 h-3.525 c-0.552,0 -1,0.44700000000000006 -1,1 S63.296999668121344,11.198999588012697 63.84899966812134,11.198999588012697 z" id="svg_8" class=""/><path d="M11.143999668121339,12.725999588012694 h6.296 c0.552,0 1,-0.44700000000000006 1,-1 V8.481999588012695 c0,-0.553 -0.44800000000000006,-1 -1,-1 h-6.296 c-0.552,0 -1,0.44700000000000006 -1,1 v3.244 C10.143999668121339,12.278999588012695 10.591999668121339,12.725999588012694 11.143999668121339,12.725999588012694 zM12.143999668121339,9.481999588012695 h4.296 v1.244 h-4.296 V9.481999588012695 z" id="svg_9" class=""/><path d="M83.92399966812134,20.7409995880127 c-0.6140000000000001,-0.24000000000000002 -1.256,-0.36100000000000004 -1.9060000000000001,-0.36100000000000004 h-3.497 V3.210999588012694 c0,-1.771 -1.393,-3.211 -3.105,-3.211 H3.104999668121337 c-1.7120000000000002,0 -3.105,1.44 -3.105,3.211 v44.193 c0,1.77 1.393,3.21 3.105,3.21 h27.14 c-0.21500000000000002,2.949 -0.545,6.062 -0.7680000000000001,6.584 c-0.31200000000000006,0.5700000000000001 -0.772,0.8480000000000001 -1.784,1.421 l-0.18000000000000002,0.10200000000000001 c-0.9600000000000001,0.537 -1.424,1.078 -1.461,1.7040000000000002 c-0.025000000000000005,0.43500000000000005 0.17200000000000001,0.8390000000000001 0.543,1.106 c0.512,0.37100000000000005 1.3090000000000002,0.44500000000000006 2.4290000000000003,0.44500000000000006 h20.274 l0.5760000000000001,0.006000000000000002 c0.7490000000000001,0 1.517,-0.05600000000000001 2.062,-0.459 c0.36500000000000005,-0.271 0.558,-0.6760000000000002 0.53,-1.108 c-0.04100000000000001,-0.6220000000000001 -0.504,-1.1600000000000001 -1.451,-1.6900000000000002 l-0.19800000000000004,-0.11200000000000002 c-1.006,-0.5710000000000001 -1.463,-0.8480000000000001 -1.7640000000000002,-1.393 c-0.231,-0.54 -0.562,-3.6550000000000002 -0.777,-6.605 h14.52 v12.722 c0,2.16 1.3010000000000002,4.069 3.316,4.864 c0.6150000000000001,0.24200000000000002 1.2570000000000001,0.36400000000000005 1.908,0.36400000000000005 h13.997 c2.8840000000000003,0 5.229,-2.3440000000000003 5.229,-5.226 v-37.73 C87.24899966812134,23.446999588012694 85.94599966812133,21.536999588012698 83.92399966812134,20.7409995880127 zM49.18099966812134,59.9759995880127 h-19.84 c0.783,-0.47000000000000003 1.4180000000000001,-0.9560000000000001 1.8890000000000002,-1.816 c0.47500000000000003,-0.8630000000000001 0.8260000000000001,-4.7620000000000005 1.021,-7.546 h14.019 c0.19500000000000003,2.783 0.545,6.682 1.019,7.545 C47.76199966812134,59.0209995880127 48.39699966812134,59.5059995880127 49.18099966812134,59.9759995880127 zM62.794999668121335,48.61399958801269 H47.20499966812134 H31.315999668121336 H3.104999668121337 c-0.6090000000000001,0 -1.105,-0.543 -1.105,-1.21 V3.210999588012694 c0,-0.6680000000000001 0.49600000000000005,-1.211 1.105,-1.211 h72.311 c0.6090000000000001,0 1.105,0.543 1.105,1.211 v17.169 h-1.126 l-0.013000000000000003,-5.239 c0.0020000000000000005,-0.026000000000000006 0.016000000000000004,-0.05000000000000001 0.016000000000000004,-0.07700000000000001 c0,-0.028000000000000004 -0.014000000000000002,-0.05200000000000001 -0.016000000000000004,-0.07900000000000001 l-0.027000000000000007,-10.79 c-0.0010000000000000002,-0.551 -0.44900000000000007,-0.997 -1,-0.997 H4.165999668121337 c-0.552,0 -1,0.44700000000000006 -1,1 v10.648 C3.149999668121337,14.917999588012695 3.122999668121338,14.985999588012696 3.122999668121338,15.062999588012694 s0.027000000000000007,0.14600000000000002 0.04400000000000001,0.21800000000000003 v30.402 c0,0.553 0.44800000000000006,1 1,1 h58.629 V48.61399958801269 zM73.37899966812134,14.062999588012694 H5.165999668121337 v-8.866 h68.19 L73.37899966812134,14.062999588012694 zM62.794999668121335,25.606999588012698 v19.076 H5.165999668121337 v-28.62 h68.217 l0.011000000000000003,4.316 h-5.373 C65.13999966812133,20.379999588012694 62.794999668121335,22.723999588012695 62.794999668121335,25.606999588012698 zM75.01999966812134,65.23599958801269 c-0.36300000000000004,0 -0.6580000000000001,-0.29500000000000004 -0.6580000000000001,-0.6580000000000001 s0.29500000000000004,-0.6590000000000001 0.6580000000000001,-0.6590000000000001 c0.36400000000000005,0 0.6600000000000001,0.29600000000000004 0.6600000000000001,0.6590000000000001 S75.38399966812133,65.23599958801269 75.01999966812134,65.23599958801269 zM82.18399966812134,36.1379995880127 v24.305 H67.85699966812133 V36.1379995880127 H82.18399966812134 zM67.85699966812133,34.1379995880127 v-5.640000000000001 h14.327 v5.640000000000001 H67.85699966812133 zM85.24699966812133,63.3389995880127 c0,1.778 -1.449,3.226 -3.229,3.226 h-5.248 c0.554,-0.48700000000000004 0.911,-1.192 0.911,-1.986 c0,-0.8770000000000001 -0.43200000000000005,-1.6500000000000001 -1.09,-2.135 h6.594 c0.552,0 1,-0.44700000000000006 1,-1 v-26.3 c0,-0.0020000000000000005 0.0010000000000000002,-0.003000000000000001 0.0010000000000000002,-0.005000000000000001 s-0.0010000000000000002,-0.003000000000000001 -0.0010000000000000002,-0.005000000000000001 v-7.635 c0,-0.553 -0.44800000000000006,-1 -1,-1 H66.85699966812133 c-0.552,0 -1,0.44700000000000006 -1,1 v33.944 c0,0.553 0.44800000000000006,1 1,1 h6.594 c-0.6570000000000001,0.48400000000000004 -1.089,1.258 -1.089,2.135 c0,0.794 0.35600000000000004,1.499 0.91,1.986 h-5.251 c-0.4,0 -0.796,-0.07600000000000001 -1.176,-0.22500000000000003 c-1.245,-0.49200000000000005 -2.049,-1.6710000000000003 -2.049,-3.004 V25.606999588012698 c0,-1.779 1.447,-3.228 3.227,-3.228 h6.375 c0.0010000000000000002,0 0.0010000000000000002,0 0.0020000000000000005,0 h7.619 c0.401,0 0.797,0.07500000000000001 1.177,0.22400000000000003 c1.248,0.49100000000000005 2.053,1.6700000000000002 2.052,3.004 V63.3389995880127 z" id="svg_10" class=""/><path d="M79.30399966812134,52.918999588012696 h-8.566 c-0.552,0 -1,0.44700000000000006 -1,1 s0.44800000000000006,1 1,1 h8.566 c0.552,0 1,-0.44700000000000006 1,-1 S79.85599966812134,52.918999588012696 79.30399966812134,52.918999588012696 z" id="svg_11" class=""/><path d="M79.30399966812134,56.8839995880127 h-8.566 c-0.552,0 -1,0.44700000000000006 -1,1 s0.44800000000000006,1 1,1 h8.566 c0.552,0 1,-0.44700000000000006 1,-1 S79.85599966812134,56.8839995880127 79.30399966812134,56.8839995880127 z" id="svg_12" class=""/><path d="M69.97299966812133,51.98299958801269 h10.096 c0.552,0 1,-0.44700000000000006 1,-1 V39.0889995880127 c0,-0.553 -0.44800000000000006,-1 -1,-1 H69.97299966812133 c-0.552,0 -1,0.44700000000000006 -1,1 v11.895 C68.97299966812133,51.5359995880127 69.42099966812134,51.98299958801269 69.97299966812133,51.98299958801269 zM70.97299966812133,40.0889995880127 h8.096 v9.895 H70.97299966812133 V40.0889995880127 z" id="svg_13" class=""/><path d="M80.06899966812134,30.317999588012697 h-2.52 c-0.552,0 -1,0.44700000000000006 -1,1 s0.44800000000000006,1 1,1 h2.52 c0.552,0 1,-0.44700000000000006 1,-1 S80.62099966812134,30.317999588012697 80.06899966812134,30.317999588012697 z" id="svg_14" class=""/><path d="M74.47099966812134,29.159999588012695 H69.97299966812133 c-0.552,0 -1,0.44700000000000006 -1,1 v2.317 c0,0.553 0.44800000000000006,1 1,1 h4.498 c0.552,0 1,-0.44700000000000006 1,-1 v-2.317 C75.47099966812134,29.606999588012698 75.02299966812134,29.159999588012695 74.47099966812134,29.159999588012695 zM73.47099966812134,31.476999588012696 H70.97299966812133 v-0.31700000000000006 h2.498 V31.476999588012696 z" id="svg_15" class=""/></g></svg>