<svg xmlns="http://www.w3.org/2000/svg" xmlns:xlink="http://www.w3.org/1999/xlink" enable-background="new 0 0 100 100" height="48" version="1.1" width="43" xml:space="preserve"><rect id="backgroundrect" width="100%" height="100%" x="0" y="0" fill="none" stroke="none"/><g class="currentLayer" style=""><title>Layer 1</title><path d="M1.0000001068115232,47.604000045776374 H21.538000106811523 h20.538 c0.553,0 1,-0.44800000000000006 1,-1 V1.0000000457763676 c0,-0.552 -0.44700000000000006,-1 -1,-1 H1.0000001068115232 c-0.553,0 -1,0.44800000000000006 -1,1 v5.396 v40.207 C1.0681152318170462e-7,47.156000045776366 0.44700010681152236,47.604000045776374 1.0000001068115232,47.604000045776374 zM41.07600010681152,45.604000045776374 H22.538000106811523 V34.202000045776366 h18.538 V45.604000045776374 zM41.07600010681152,32.202000045776366 H22.538000106811523 V20.799000045776367 h18.538 V32.202000045776366 zM41.07600010681152,18.799000045776367 H22.538000106811523 V7.397000045776366 h18.538 V18.799000045776367 zM2.000000106811523,2.0000000457763676 h39.076 v3.396 H21.538000106811523 H2.000000106811523 V2.0000000457763676 zM2.000000106811523,7.397000045776366 H20.538000106811523 v38.207 H2.000000106811523 V7.397000045776366 z" id="svg_1" class=""/></g></svg>